<?xml version="1.0" encoding="UTF-8" standalone="no"?>
<!-- Created with Inkscape (http://www.inkscape.org/) -->

<svg
   xmlns:dc="http://purl.org/dc/elements/1.1/"
   xmlns:cc="http://creativecommons.org/ns#"
   xmlns:rdf="http://www.w3.org/1999/02/22-rdf-syntax-ns#"
   xmlns:svg="http://www.w3.org/2000/svg"
   xmlns="http://www.w3.org/2000/svg"
   xmlns:sodipodi="http://sodipodi.sourceforge.net/DTD/sodipodi-0.dtd"
   xmlns:inkscape="http://www.inkscape.org/namespaces/inkscape"
   width="210mm"
   height="297mm"
   viewBox="0 0 210 297"
   version="1.1"
   id="svg8"
   sodipodi:docname="Day1.Bonus(InsertAfter) .svg"
   inkscape:version="0.92.5 (2060ec1f9f, 2020-04-08)">
  <defs
     id="defs2" />
  <sodipodi:namedview
     id="base"
     pagecolor="#ffffff"
     bordercolor="#666666"
     borderopacity="1.0"
     inkscape:pageopacity="0.0"
     inkscape:pageshadow="2"
     inkscape:zoom="0.28924023"
     inkscape:cx="724.05359"
     inkscape:cy="611.52978"
     inkscape:document-units="mm"
     inkscape:current-layer="layer1"
     showgrid="false"
     inkscape:snap-text-baseline="true"
     inkscape:snap-global="false"
     inkscape:window-width="1366"
     inkscape:window-height="654"
     inkscape:window-x="0"
     inkscape:window-y="27"
     inkscape:window-maximized="1" />
  <metadata
     id="metadata5">
    <rdf:RDF>
      <cc:Work
         rdf:about="">
        <dc:format>image/svg+xml</dc:format>
        <dc:type
           rdf:resource="http://purl.org/dc/dcmitype/StillImage" />
      </cc:Work>
    </rdf:RDF>
  </metadata>
  <g
     inkscape:label="Layer 1"
     inkscape:groupmode="layer"
     id="layer1">
    <flowRoot
       xml:space="preserve"
       id="flowRoot3747"
       style="font-style:normal;font-weight:normal;font-size:40px;line-height:1.25;font-family:sans-serif;letter-spacing:0px;word-spacing:0px;fill:#000000;fill-opacity:1;stroke:none"
       transform="scale(0.26458333)"><flowRegion
         id="flowRegion3749"><rect
           id="rect3751"
           width="600"
           height="180"
           x="-1034.2858"
           y="165.37683" /></flowRegion><flowPara
         id="flowPara3753" /><flowPara
         id="flowPara3755" /></flowRoot>    <text
       xml:space="preserve"
       style="font-style:normal;font-weight:normal;font-size:10.58333302px;line-height:1.25;font-family:sans-serif;letter-spacing:0px;word-spacing:0px;fill:#000000;fill-opacity:1;stroke:none;stroke-width:0.26458332"
       x="-219.98215"
       y="61.142857"
       id="text3769"><tspan
         sodipodi:role="line"
         id="tspan3767"
         x="-219.98215"
         y="70.506622"
         style="stroke-width:0.26458332" /></text>
    <text
       xml:space="preserve"
       style="font-style:normal;font-weight:normal;font-size:10.58333302px;line-height:1.25;font-family:sans-serif;letter-spacing:0px;word-spacing:0px;fill:#000000;fill-opacity:1;stroke:none;stroke-width:0.26458332"
       x="-235.85715"
       y="58.119045"
       id="text3783"><tspan
         sodipodi:role="line"
         id="tspan3781"
         x="-235.85715"
         y="67.482811"
         style="stroke-width:0.26458332" /></text>
    <flowRoot
       xml:space="preserve"
       id="flowRoot3789"
       style="fill:black;fill-opacity:1;stroke:none;font-family:sans-serif;font-style:normal;font-weight:normal;font-size:40px;line-height:1.25;letter-spacing:0px;word-spacing:0px"><flowRegion
         id="flowRegion3791"><rect
           id="rect3793"
           width="620"
           height="434.28571"
           x="-1097.1428"
           y="11.091114" /></flowRegion><flowPara
         id="flowPara3795"></flowPara></flowRoot>    <rect
       style="fill:#ff6600;stroke-width:0.26458332"
       id="rect3811"
       width="89.202377"
       height="42.333332"
       x="-340.93454"
       y="-21.255951" />
    <rect
       style="fill:#aa4400;stroke-width:0.26458332"
       id="rect3813"
       width="43.845234"
       height="41.577377"
       x="-340.93454"
       y="-21.255951" />
    <flowRoot
       xml:space="preserve"
       id="flowRoot3815"
       style="font-style:normal;font-weight:normal;font-size:40px;line-height:1.25;font-family:sans-serif;letter-spacing:0px;word-spacing:0px;fill:#000000;fill-opacity:1;stroke:none"
       transform="matrix(0.26458333,0,0,0.26458333,-111.88095,-71.059524)"><flowRegion
         id="flowRegion3817"><rect
           id="rect3819"
           width="337.14285"
           height="159.99998"
           x="-865.71429"
           y="188.23398" /></flowRegion><flowPara
         id="flowPara3825">Data         Next</flowPara><flowPara
         id="flowPara3833">   5                      </flowPara><flowPara
         id="flowPara3837">   </flowPara></flowRoot>    <rect
       style="fill:#ff6600;stroke-width:0.26458332"
       id="rect3811-9"
       width="89.202377"
       height="42.333332"
       x="-201.83922"
       y="-22.76786" />
    <rect
       style="fill:#aa4400;stroke-width:0.26458332"
       id="rect3813-1"
       width="43.845238"
       height="41.577377"
       x="-201.83922"
       y="-22.76786" />
    <flowRoot
       transform="matrix(0.26458333,0,0,0.26458333,27.214358,-72.571431)"
       xml:space="preserve"
       id="flowRoot3815-2"
       style="font-style:normal;font-weight:normal;font-size:40px;line-height:1.25;font-family:sans-serif;letter-spacing:0px;word-spacing:0px;fill:#000000;fill-opacity:1;stroke:none"><flowRegion
         id="flowRegion3817-7"><rect
           id="rect3819-0"
           width="337.14285"
           height="159.99998"
           x="-865.71429"
           y="188.23398" /></flowRegion><flowPara
         id="flowPara3825-9">Data         Next</flowPara><flowPara
         id="flowPara3833-3">   10                      </flowPara><flowPara
         id="flowPara3837-6">   </flowPara></flowRoot>    <rect
       style="fill:#ff6600;stroke-width:0.26458332"
       id="rect3811-0"
       width="89.202377"
       height="42.333332"
       x="-73.327309"
       y="-22.76786" />
    <rect
       style="fill:#aa4400;stroke-width:0.26458332"
       id="rect3813-6"
       width="43.845238"
       height="41.577377"
       x="-73.327309"
       y="-22.76786" />
    <flowRoot
       transform="matrix(0.26458333,0,0,0.26458333,157.23817,-72.57143)"
       xml:space="preserve"
       id="flowRoot3815-26"
       style="font-style:normal;font-weight:normal;font-size:40px;line-height:1.25;font-family:sans-serif;letter-spacing:0px;word-spacing:0px;fill:#000000;fill-opacity:1;stroke:none"><flowRegion
         id="flowRegion3817-1"><rect
           id="rect3819-8"
           width="337.14285"
           height="159.99998"
           x="-865.71429"
           y="188.23398" /></flowRegion><flowPara
         id="flowPara3825-7">Data         Next</flowPara><flowPara
         id="flowPara3833-9">   20           Null                      </flowPara><flowPara
         id="flowPara3837-2">   </flowPara></flowRoot>    <rect
       style="fill:#ff6600;stroke-width:0.26458332"
       id="rect3811-02"
       width="89.202377"
       height="42.333332"
       x="-138.33922"
       y="46.779766" />
    <rect
       style="fill:#aa4400;stroke-width:0.26458332"
       id="rect3813-3"
       width="43.845238"
       height="41.577377"
       x="-137.58327"
       y="48.291672" />
    <flowRoot
       transform="matrix(0.26458333,0,0,0.26458333,91.470312,-1.5119024)"
       xml:space="preserve"
       id="flowRoot3815-7"
       style="font-style:normal;font-weight:normal;font-size:40px;line-height:1.25;font-family:sans-serif;letter-spacing:0px;word-spacing:0px;fill:#000000;fill-opacity:1;stroke:none"><flowRegion
         id="flowRegion3817-5"><rect
           id="rect3819-9"
           width="337.14285"
           height="159.99998"
           x="-865.71429"
           y="188.23398" /></flowRegion><flowPara
         id="flowPara3825-2">Data         Next</flowPara><flowPara
         id="flowPara3833-2">   15                      </flowPara><flowPara
         id="flowPara3837-8">   </flowPara></flowRoot>    <flowRoot
       xml:space="preserve"
       id="flowRoot3981"
       style="fill:black;fill-opacity:1;stroke:none;font-family:sans-serif;font-style:normal;font-weight:normal;font-size:40px;line-height:1.25;letter-spacing:0px;word-spacing:0px"><flowRegion
         id="flowRegion3983"><rect
           id="rect3985"
           width="0"
           height="58.89468"
           x="-317.14285"
           y="880.76788" /></flowRegion><flowPara
         id="flowPara3987"></flowPara></flowRoot>    <flowRoot
       xml:space="preserve"
       id="flowRoot3989"
       style="fill:black;fill-opacity:1;stroke:none;font-family:sans-serif;font-style:normal;font-weight:normal;font-size:40px;line-height:1.25;letter-spacing:0px;word-spacing:0px"><flowRegion
         id="flowRegion3991"><rect
           id="rect3993"
           width="534.28571"
           height="271.42856"
           x="-600"
           y="762.51971" /></flowRegion><flowPara
         id="flowPara3995"></flowPara></flowRoot>    <path
       style="fill:#333333;stroke-width:0.26458332"
       id="path4011"
       d="m -93.219457,46.971923 c 1.994535,-2.897418 3.891987,-5.854544 5.72361,-8.857107 1.613519,-2.621285 3.111227,-5.310955 4.713237,-7.938862 0.10586,-0.05267 1.26524,-2.070796 1.352936,-2.035911 0.119785,0.04765 0.04214,0.401953 0.160848,0.3517 3.39175,-1.435735 6.67888,-3.107045 10.018321,-4.660568 -34.565115,19.695884 22.226243,-12.411427 -12.088516,6.917329 -0.632367,0.356201 -1.295529,0.654738 -1.943526,0.981649 -1.805882,0.870315 -3.756787,1.414434 -5.553427,2.299301 -1.247333,0.57255 -2.603116,0.814789 -3.963037,0.904666 -6.553459,1.054766 3.618381,-5.814211 8.158062,-6.698515 2.803747,-0.625543 5.515371,-1.59022 8.248046,-2.462846 1.893351,-0.603229 3.648668,-1.545408 5.487123,-2.273143 1.133644,-0.637124 1.884468,-0.850046 3.165183,-1.066079 1.194515,-0.131608 2.398993,-0.11812 3.599082,-0.137583 1.085462,-0.05403 1.5244,-0.07154 2.095114,0.934512 0.37801,1.264726 0.26933,2.634678 0.422352,3.947745 0.234281,2.024285 0.384635,4.056568 0.5139,6.089796 0.0429,0.537763 0.05834,1.077052 0.08086,1.615884 0,0 -10.014244,5.125043 -10.014244,5.125043 v 0 c 0.0033,-0.540261 -0.0016,-1.080373 -0.0083,-1.62061 -0.04801,-2.013167 -0.163626,-4.027252 -0.436687,-6.023666 -0.164719,-1.168976 -0.32425,-2.331619 -0.347356,-3.51106 -0.384661,-0.02856 -0.953381,0.156472 -1.391711,0.06117 -1.156914,0.01 -2.323803,0.03824 -3.455371,0.304594 -1.065678,0.27387 -1.987565,0.841142 -3.015882,1.224436 -1.764953,0.802314 -3.584313,1.476126 -5.42214,2.092229 -2.799575,0.894573 -5.594826,1.871613 -8.493125,2.394032 -4.470665,0.327877 -1.206714,0.233035 8.070614,-6.595461 0.109763,-0.08079 1.019763,-0.02299 1.142622,-0.03306 0.202274,-0.01659 0.403751,-0.04175 0.605626,-0.06263 1.294421,-0.206145 2.544606,-0.570154 3.724103,-1.153123 1.836584,-0.724667 3.694038,-1.410536 5.460037,-2.299031 0.347453,-0.176493 0.694581,-0.353628 1.04236,-0.529478 0.311804,-0.15766 1.237075,-0.648992 0.936384,-0.47105 -2.889895,1.710184 -11.618407,6.740256 -8.705887,5.068888 34.561285,-19.8332081 -5.874371,3.196461 1.56527,-0.92589 6.056352,-2.858681 13.903309,-8.101103 9.163444,-2.248017 -1.650386,2.653623 -3.291827,5.311309 -4.873614,8.008874 -1.818214,2.933766 -3.64318,5.859989 -5.466826,8.788612 0,0 -10.269458,4.493233 -10.269458,4.493233 z"
       inkscape:connector-curvature="0" />
    <path
       style="fill:#333333;stroke-width:0.26458332"
       id="path4013"
       d="m -121.81291,-5.3275679 c 2.184,0.9164738 4.32638,1.9334919 6.46075,2.9604908 1.47682,0.6914116 3.07023,1.0349127 4.61591,1.52873942 0.80805,0.31199267 1.64045,0.43785795 2.49872,0.4744395 0.75329,-0.001106 1.50648,0.002886 2.25976,0.001693 1.05367,0.006899 2.10728,-0.006691 3.16093,-0.007335 0.79248,-0.46050938 1.71733,-0.57219693 2.60923,-0.69898532 0.81167,-0.1004086 1.63708,-0.071466 2.454182,-0.064855 1.331455,0.016826 2.662896,0.017584 3.994436,0.019383 1.099272,-0.2049261 2.169387,-0.575614 3.280396,-0.7134386 0.255498,-0.1656398 0.719865,0.043886 0.975416,-0.075441 0.08928,-0.041687 0.09584,-0.1849587 0.181848,-0.2330298 0.28158,-0.1573824 0.61437,-0.2060357 0.899589,-0.356726 1.425215,-0.5570156 2.74583,-1.3286054 4.196257,-1.8298252 1.164817,-0.4459549 2.411762,-0.5377754 3.644895,-0.599875 0.891262,0.041219 1.669436,-0.3879214 2.545707,-0.5503994 0.843086,-0.1704356 1.708382,-0.1968408 2.56632,-0.2000491 0.125527,-0.00151 0.259305,0.040274 0.376582,-0.00451 0.182909,-0.069846 0.563202,-0.5346898 0.394684,-0.4350102 -12.044743,7.1245427 -8.350795,8.0193154 -9.535054,5.37898016 -1.062318,-1.63609506 -2.631662,-2.79988876 -4.022064,-4.12802566 -1.100941,-0.8987949 -2.03885,-1.9710474 -3.155248,-2.850075 -0.109257,-0.079484 -0.444397,-0.1702371 -0.327771,-0.2384533 3.260706,-1.9072426 6.519632,-3.8477434 9.964345,-5.3981414 0.279358,-0.125733 0.462505,0.401877 0.696085,0.600094 1.152916,0.97837 2.358278,1.873398 3.570618,2.7763564 1.901452,1.3059537 3.885501,2.4929279 5.706464,3.9123519 1.113007,0.8511122 1.985873,1.6270422 1.916414,3.1061643 -0.363831,1.6032812 -1.921049,2.40039875 -3.234343,3.16513267 -1.168088,0.63797966 -2.275247,1.36917503 -3.314692,2.19886973 -0.659059,0.555825 -1.007779,1.3698061 -1.551432,2.0106706 -3.696084,2.2047586 -7.110346,5.3505483 -11.299714,6.6144984 -3.587358,1.81341 -1.987859,1.016654 8.483939,-4.8711006 0.209849,-0.1179881 -0.404633,0.2615948 -0.597895,0.4051477 -0.549622,0.4082481 -1.043704,0.8965747 -1.54655,1.359137 -0.477743,0.3925819 -0.922391,0.8196631 -1.395468,1.2175871 0,0 -10.427679,4.1660128 -10.427679,4.1660128 v 0 c 0.508881,-0.363033 1.042942,-0.69638 1.433478,-1.196995 0.736145,-0.539406 1.317305,-1.42291 2.091872,-1.884457 3.364738,-2.0049692 6.767963,-3.9449463 10.173139,-5.8804443 0.193207,-0.1098179 0.411322,-0.1684311 0.616982,-0.2526463 5.435449,-2.6847064 -11.121016,9.0834056 -8.036745,4.4461654 0.05174,-0.016298 0.517382,-0.1594072 0.548341,-0.1846757 0.489882,-0.399822 0.662829,-1.1999804 1.146249,-1.6153479 0.808792,-1.1218334 2.093016,-1.8211025 3.255148,-2.5288163 1.196014,-0.6935317 2.545799,-1.2718534 3.524655,-2.2603487 0.08141,-0.169841 0.2501,-0.3197746 0.247187,-0.5080969 -0.01037,-0.67004863 -1.167493,-1.1097299 -1.492692,-1.54844392 -1.795875,-1.40264708 -3.687993,-2.67018948 -5.553787,-3.97688348 -1.241094,-0.9171355 -2.505175,-1.8093042 -3.709254,-2.7753196 -0.296807,-0.2381253 -1.164,-0.4869241 -0.874459,-0.733833 2.833598,-2.4163633 6.049484,-4.3511333 9.187997,-6.3555773 0.120695,-0.07708 0.217914,0.185874 0.326869,0.278811 1.069348,0.953628 2.040975,2.009432 3.115281,2.958114 1.480849,1.4111 3.085312,2.7104407 4.279929,4.3941487 0.02268,0.038024 0.675405,1.0910988 0.601578,1.1444198 -8.930171,6.4496996 -6.011413,6.05661177 -10.667936,6.14404794 -0.817351,0.0552389 -1.630979,0.14415116 -2.423758,0.36218636 -0.877433,0.2437373 -1.736043,0.4369607 -2.653215,0.4136905 -1.166826,0.1108707 -2.30708,0.3586495 -3.387641,0.8263503 -1.410448,0.6153315 -2.780442,1.3216004 -4.213121,1.8871658 -0.789771,0.2670334 -1.414484,0.3913156 -2.238579,0.4803611 -1.100245,0.2538651 -2.215055,0.5069274 -3.348605,0.5199796 -1.34183,-0.0013 -2.68368,-0.00805 -4.02535,0.017732 -0.79005,0.021172 -1.58103,0.04552 -2.35634,0.2153605 -0.90448,0.1811629 -1.78267,0.5711801 -2.71231,0.5409896 -1.05254,0.00201 -2.10511,-0.00684 -3.15763,0.00629 -0.78377,0.00225 -1.56934,0.02647 -2.34898,-0.075918 -0.88964,-0.1338096 -1.74106,-0.4020926 -2.58479,-0.7114199 -1.5617,-0.5169439 -3.17189,-0.9082066 -4.63007,-1.6979847 -2.11725,-1.0135145 -4.20142,-2.1385097 -6.46809,-2.78652231 0,0 9.28908,-6.30254999 9.28908,-6.30254999 z"
       inkscape:connector-curvature="0" />
    <path
       style="fill:#333333;stroke-width:0.26458332"
       id="path4015"
       d="m -256.30757,-1.8675695 c 2.91426,0.4004907 5.85502,0.5629478 8.79198,0.686873 2.22168,0.24142412 4.43369,0.55995366 6.66189,0.73857691 1.78551,0.251577 3.55635,0.56232242 5.36351,0.70258869 2.52123,0.10612047 5.05595,0.28761873 7.57282,0.0540034 2.45201,-0.35766705 4.94749,-0.32848653 7.39342,-0.70104849 2.20425,-0.2857297 4.34865,-0.85311771 6.55318,-1.14248811 1.77536,-0.4221826 3.56454,-0.7760592 5.37239,-1.0229239 0.87694,-0.086546 1.75871,-0.1176851 2.63963,-0.1071001 0.69162,0.00609 1.34415,-0.078454 1.97705,0.2139798 0.80681,0.27672 1.64438,0.4718694 2.49569,0.5359847 0.65153,0.043276 1.30529,0.026072 1.95785,0.028712 0.78204,-8.44e-4 1.56408,-0.0072 2.34612,-0.0049 0.19183,-0.1351301 0.49091,0.1101725 0.68871,-0.00638 0.0814,-0.047985 0.20641,-0.3018747 0.12445,-0.2548026 -11.6077,6.6659528 -8.38015,6.9178764 -9.53672,5.5621731 -1.39091,-1.2050848 -3.14318,-1.8563166 -4.81299,-2.57239493 -3.3911,-1.28308728 -6.52389,-3.06827647 -9.62437,-4.92507167 -2.80664,-1.6134403 -5.49166,-3.4199909 -8.18871,-5.2047764 -4.42418,-3.1559639 -3.46319,-1.6226019 8.35444,-6.5466899 0.35711,-0.148798 0.52584,0.569186 0.81418,0.827121 0.36403,0.325648 0.75986,0.613892 1.13979,0.920838 2.93844,2.309847 5.97511,4.4871552 8.9576,6.7387106 2.43937,1.8985526 4.68175,4.0391463 7.23402,5.7898286 1.25746,0.96394792 2.4962,1.94126421 3.61822,3.0620268 0.63705,0.815768 0.88654,1.6859565 0.67971,2.6980761 -1.01717,1.9581302 -2.52416,3.5591075 -4.03788,5.1369788 -1.29652,1.2972031 -2.72047,2.4549431 -4.14606,3.6051821 -0.80348,0.61728 -1.49323,1.278939 -1.96871,2.177109 -2.37786,4.816448 2.78368,-0.503215 -10.50791,7.056546 -0.0772,0.007 -0.15431,0.0139 -0.23147,0.02086 0,0 8.93299,-6.917842 8.93299,-6.917842 v 0 c 0.0532,-0.03426 0.10637,-0.06853 0.15955,-0.10279 -3.15848,1.817111 -6.3477,3.581793 -9.47543,5.451331 -0.0809,0.04833 0.18673,0.06531 0.27887,0.04573 0.32519,-0.06909 0.59653,-0.593235 0.5864,-0.869252 0.40689,-1.02238 0.88518,-2.041448 1.85776,-2.638237 1.32651,-1.291236 2.94156,-2.253674 4.24284,-3.583266 1.51189,-1.40676 3.11619,-2.929057 4.02003,-4.8055571 0.66772,-0.3379311 0.37643,-0.9050496 0.014,-1.4183183 -1.02578,-1.1064388 -2.23189,-2.014149 -3.40142,-2.9614433 -2.4626,-1.8579776 -4.67491,-4.01316578 -7.11781,-5.8966301 -2.9821,-2.2796116 -6.06092,-4.4287357 -9.03792,-6.7157353 -0.41687,-0.3255068 -0.84522,-0.6368259 -1.25062,-0.9765204 -0.31743,-0.2659804 -1.22199,-0.5598554 -0.91619,-0.8391235 9.47314,-8.651206 6.24651,-8.364812 10.57874,-5.241809 2.58406,1.860998 5.21529,3.659501 7.97576,5.252865 3.10511,1.8342559 6.29637,3.4597744 9.68654,4.7087302 1.85136,0.7860924 3.78602,1.5399695 5.25496,2.9612165 3.16956,4.2166809 -5.71275,7.5156852 -10.05261,7.0804707 -0.78488,0.00497 -1.56984,0.00443 -2.35472,0.00193 -0.6847,-0.00393 -1.37142,-0.03146 -2.04709,-0.1515782 -0.86293,-0.1722427 -1.7064,-0.4159396 -2.55905,-0.63041 -0.60659,0.043355 -1.21483,0.00342 -1.82255,0.020865 -0.83775,0.024982 -1.67619,0.058292 -2.50546,0.1913205 -1.77439,0.2575192 -3.52044,0.6633173 -5.28621,0.9699651 -2.18936,0.3666241 -4.35209,0.8857687 -6.56386,1.1154095 -2.46907,0.2356268 -4.94666,0.3826481 -7.41451,0.6364603 -2.56303,0.097226 -5.1303,-0.010901 -7.68915,-0.1726097 -1.82284,-0.1626412 -3.61624,-0.4918721 -5.43589,-0.6717366 -2.16912,-0.255057 -4.32616,-0.6169504 -6.50541,-0.7796212 -2.96641,-0.1512388 -5.92396,-0.4433515 -8.89153,-0.5510279 0,0 9.05711,-6.580377 9.05711,-6.580377 z"
       inkscape:connector-curvature="0" />
    <path
       style="fill:#333333;stroke-width:0.26458332"
       id="path4017"
       d="m -315.52827,28.99239 c 0.15452,2.38718 0.31528,4.788379 0.62386,7.16262 0.24464,1.539833 0.57071,3.064119 0.78875,4.608238 0.0704,1.108379 0.19209,2.182812 0.45257,3.26599 0.79616,2.203053 1.53265,4.416472 2.1214,6.685375 0.28755,1.101415 0.5151,2.222302 0.57058,3.360648 0.0711,0.781774 0.36356,1.512665 0.71263,2.206336 1.06214,2.115217 1.70881,4.392377 2.56598,6.588226 0.73139,1.776028 1.39748,3.590771 1.81597,5.468445 0,0 -9.89994,5.284012 -9.89994,5.284012 v 0 c -0.29591,-1.849011 -0.87117,-3.63715 -1.57644,-5.369226 -0.83728,-2.15309 -1.49204,-4.395224 -2.68076,-6.393075 -0.43778,-0.839901 -0.74721,-1.709335 -0.948,-2.640896 -0.0199,-1.082646 -0.12092,-2.160529 -0.35965,-3.219429 -0.49406,-2.285227 -1.21989,-4.483745 -2.13916,-6.633781 -0.3366,-1.108898 -0.60669,-2.221534 -0.59145,-3.386968 -0.13361,-1.562357 -0.41428,-3.105103 -0.65251,-4.653854 -0.33367,-2.405036 -0.38653,-4.843783 -0.79489,-7.241969 0,0 9.99106,-5.090692 9.99106,-5.090692 z"
       inkscape:connector-curvature="0" />
    <path
       style="fill:#333333;stroke-width:0.26458332"
       id="path4019"
       d="m -318.03554,36.735877 c -1.93342,1.545709 -3.5251,3.413336 -4.6899,5.588486 -1.3526,3.269052 -2.56376,6.599714 -3.74613,9.934467 -0.12581,0.392782 -0.25767,0.783685 -0.37745,1.178348 -0.15198,0.500703 -0.35272,0.994508 -0.41418,1.514144 -0.0148,0.126273 0.15055,0.327605 0.0346,0.379886 -10.5442,4.756018 -10.6491,7.88388 -10.18153,3.469437 0.44185,-2.311564 0.91061,-4.616178 1.51892,-6.890322 0.50657,-1.803746 1.11855,-3.582654 1.87073,-5.299072 0.68366,-1.460706 1.62947,-2.781273 2.52614,-4.116218 1.14789,-1.845376 2.35609,-3.651541 3.52914,-5.480643 0.73615,-1.044046 1.31268,-2.200481 2.08622,-3.2166 2.82892,-3.418544 7.11872,-6.390346 11.586,-6.246442 1.78942,0.796531 3.36766,2.042115 4.95368,3.18176 1.4622,1.019953 2.86827,2.120831 4.18206,3.326185 0.66252,0.665044 1.51834,1.047012 2.34397,1.456442 0.58362,0.459639 1.16869,0.871188 1.69122,1.404204 0,0 -9.5549,5.885971 -9.5549,5.885971 v 0 c -0.4822,-0.422415 -1.00468,-0.792186 -1.55059,-1.129056 -0.87797,-0.494705 -1.78052,-0.940353 -2.4556,-1.720355 -1.27836,-1.161196 -2.59871,-2.275129 -4.01439,-3.267843 -1.27442,-0.887203 -3.05049,-2.479603 -4.66339,-2.449046 -0.17756,0.03382 -0.44683,0.073 -0.61838,0.14918 -0.0961,0.04268 -0.36261,0.213291 -0.27146,0.160843 14.50689,-8.345891 12.15151,-6.864977 8.74077,-5.09864 -0.96874,0.869934 -1.48169,2.034053 -2.24258,3.081528 -1.20063,1.81842 -2.43999,3.612922 -3.54862,5.490522 -0.83418,1.317725 -1.69764,2.617052 -2.54825,3.92212 -0.7402,1.705594 -1.5285,3.399369 -2.01446,5.203102 -0.66882,2.189022 -1.08511,4.43117 -1.5145,6.676747 -0.49745,4.462047 0.16287,0.191977 -10.35013,5.699046 -0.10229,0.05358 0.2023,0.240816 0.29813,0.17639 0.51477,-0.346112 0.53734,-2.332922 0.94882,-2.771958 1.23545,-3.342809 2.54262,-6.65897 3.71557,-10.025007 0.19243,-0.484462 0.34743,-0.985536 0.57732,-1.453388 0.86897,-1.768364 2.47185,-3.06914 3.73663,-4.534 0,0 10.41649,-4.180218 10.41649,-4.180218 z"
       inkscape:connector-curvature="0" />
    <rect
       style="fill:#803300;stroke-width:0.26458332"
       id="rect4021"
       width="55.184521"
       height="33.261906"
       x="-334.8869"
       y="73.994049" />
    <text
       xml:space="preserve"
       style="font-style:normal;font-weight:normal;font-size:10.58333302px;line-height:1.25;font-family:sans-serif;letter-spacing:0px;word-spacing:0px;fill:#000000;fill-opacity:1;stroke:none;stroke-width:0.26458332"
       x="-322.03571"
       y="92.89286"
       id="text4025"><tspan
         sodipodi:role="line"
         id="tspan4023"
         x="-322.03571"
         y="92.89286"
         style="stroke-width:0.26458332">Head</tspan></text>
    <flowRoot
       xml:space="preserve"
       id="flowRoot4027"
       style="font-style:normal;font-weight:bold;font-size:40px;line-height:1.25;font-family:sans-serif;letter-spacing:0px;word-spacing:0px;fill:#000000;fill-opacity:1;stroke:none;-inkscape-font-specification:'sans-serif Bold';font-stretch:normal;font-variant:normal;"
       transform="scale(0.26458333)"><flowRegion
         id="flowRegion4029"
         style="-inkscape-font-specification:'sans-serif Bold';font-family:sans-serif;font-weight:bold;font-style:normal;font-stretch:normal;font-variant:normal;"><rect
           id="rect4031"
           width="1248.5714"
           height="1277.1428"
           x="854.28571"
           y="-83.194603"
           style="-inkscape-font-specification:'sans-serif Bold';font-family:sans-serif;font-weight:bold;font-style:normal;font-stretch:normal;font-variant:normal;" /></flowRegion><flowPara
         id="flowPara4033" /></flowRoot>    <flowRoot
       xml:space="preserve"
       id="flowRoot4035"
       style="font-style:normal;font-weight:normal;font-size:40px;line-height:1.25;font-family:sans-serif;letter-spacing:0px;word-spacing:0px;fill:#000000;fill-opacity:1;stroke:none"
       transform="matrix(0.26458333,0,0,0.32795506,2.2678571,-45.178344)"><flowRegion
         id="flowRegion4037"><rect
           id="rect4039"
           width="1237.1429"
           height="1919.5339"
           x="842.85712"
           y="-74.623169" /></flowRegion><flowPara
         id="flowPara4041">void InsertAfter(int data, int value)</flowPara><flowPara
         id="flowPara4043" /><flowPara
         id="flowPara4154">node *current = head;</flowPara><flowPara
         id="flowPara4124">while ( current -&gt; Data != data)</flowPara><flowPara
         id="flowPara4134">  {</flowPara><flowPara
         id="flowPara4140">       current = current-&gt;next;</flowPara><flowPara
         id="flowPara4142">   }</flowPara><flowPara
         id="flowPara4156">   node* new_node= new node(value);</flowPara><flowPara
         id="flowPara4188">   new_node -&gt; next = current -&gt; next;  </flowPara><flowPara
         id="flowPara4194">   current -&gt; next = new_node;</flowPara><flowPara
         id="flowPara4196">    return;</flowPara><flowPara
         id="flowPara4192"> }</flowPara><flowPara
         id="flowPara4382">else </flowPara><flowPara
         id="flowPara4386"> InsertNode(value)</flowPara><flowPara
         id="flowPara4388">}</flowPara></flowRoot>    <rect
       style="fill:#803300;stroke-width:0.26458332"
       id="rect4021-9"
       width="55.184525"
       height="33.261906"
       x="-212.80058"
       y="7.470232" />
    <text
       xml:space="preserve"
       style="font-style:normal;font-weight:normal;font-size:10.58333302px;line-height:1.25;font-family:sans-serif;letter-spacing:0px;word-spacing:0px;fill:#000000;fill-opacity:1;stroke:none;stroke-width:0.26458332"
       x="-202.97319"
       y="24.857153"
       id="text4025-7"><tspan
         sodipodi:role="line"
         id="tspan4023-3"
         x="-202.97319"
         y="24.857153"
         style="stroke-width:0.26458332">Current</tspan></text>
    <flowRoot
       xml:space="preserve"
       id="flowRoot4070"
       style="fill:black;fill-opacity:1;stroke:none;font-family:sans-serif;font-style:normal;font-weight:normal;font-size:40px;line-height:1.25;letter-spacing:0px;word-spacing:0px"><flowRegion
         id="flowRegion4072"><rect
           id="rect4074"
           width="268.57144"
           height="171.42857"
           x="-1280"
           y="453.94824" /></flowRegion><flowPara
         id="flowPara4076"></flowPara></flowRoot>    <text
       xml:space="preserve"
       style="font-style:normal;font-weight:normal;font-size:10.58333302px;line-height:1.25;font-family:sans-serif;letter-spacing:0px;word-spacing:0px;fill:#000000;fill-opacity:1;stroke:none;stroke-width:0.26458332"
       x="360.58926"
       y="98.184517"
       id="text4118"><tspan
         sodipodi:role="line"
         id="tspan4116"
         x="360.58926"
         y="107.54829"
         style="stroke-width:0.26458332"></tspan><tspan
         sodipodi:role="line"
         x="360.58926"
         y="120.77745"
         style="stroke-width:0.26458332"
         id="tspan4120" /></text>
  </g>
</svg>
