<?xml version="1.0" encoding="UTF-8" standalone="no"?>
<!-- Created with Inkscape (http://www.inkscape.org/) -->

<svg
   xmlns:dc="http://purl.org/dc/elements/1.1/"
   xmlns:cc="http://creativecommons.org/ns#"
   xmlns:rdf="http://www.w3.org/1999/02/22-rdf-syntax-ns#"
   xmlns:svg="http://www.w3.org/2000/svg"
   xmlns="http://www.w3.org/2000/svg"
   xmlns:sodipodi="http://sodipodi.sourceforge.net/DTD/sodipodi-0.dtd"
   xmlns:inkscape="http://www.inkscape.org/namespaces/inkscape"
   width="210mm"
   height="297mm"
   viewBox="0 0 210 297"
   version="1.1"
   id="svg4415"
   inkscape:version="0.92.5 (2060ec1f9f, 2020-04-08)"
   sodipodi:docname="Day2.StackArraybased.svg">
  <defs
     id="defs4409" />
  <sodipodi:namedview
     id="base"
     pagecolor="#ffffff"
     bordercolor="#666666"
     borderopacity="1.0"
     inkscape:pageopacity="0.0"
     inkscape:pageshadow="2"
     inkscape:zoom="0.28"
     inkscape:cx="1802.0722"
     inkscape:cy="795.11367"
     inkscape:document-units="mm"
     inkscape:current-layer="layer1"
     showgrid="false"
     showguides="true"
     inkscape:window-width="683"
     inkscape:window-height="654"
     inkscape:window-x="683"
     inkscape:window-y="27"
     inkscape:window-maximized="0" />
  <metadata
     id="metadata4412">
    <rdf:RDF>
      <cc:Work
         rdf:about="">
        <dc:format>image/svg+xml</dc:format>
        <dc:type
           rdf:resource="http://purl.org/dc/dcmitype/StillImage" />
        <dc:title></dc:title>
      </cc:Work>
    </rdf:RDF>
  </metadata>
  <g
     inkscape:label="Layer 1"
     inkscape:groupmode="layer"
     id="layer1">
    <path
       style="fill:#000000;stroke-width:0.26458332"
       id="path4550"
       d="m 67.740211,95.367557 c -0.09274,0.858311 -0.07018,1.673143 0.231415,2.483774 0.284369,0.770358 0.412888,1.567473 0.451475,2.383789 -0.0235,1.77795 -0.07526,3.55593 -0.101132,5.33446 0.02859,1.87417 0.05283,3.74693 0.04813,5.62143 -0.239776,3.39131 -0.07627,6.77749 0.05398,10.16875 0.168439,4.35755 0.30685,8.71586 0.490593,13.07283 0.119187,2.48299 0.184528,4.96222 0.158684,7.44786 -0.08594,2.89641 -0.07116,5.7847 0.08857,8.67769 0.138457,3.55403 0.791949,7.05851 1.029103,10.60416 0.119742,2.98569 0.294515,5.96872 0.403153,8.95488 0.0068,1.41743 0.124704,2.83159 0.123203,4.24865 0.110522,2.53689 0.594569,5.0405 1.04452,7.53392 0.570616,3.22507 1.179544,6.42933 1.999959,9.59963 0.268877,1.20345 0.625176,2.38855 0.730795,3.62095 -0.02774,0.94137 0.319857,1.78934 0.598339,2.67532 0.897239,3.12641 1.463368,6.32447 2.368418,9.45022 0.996775,2.77234 1.567561,5.64679 2.035109,8.54489 0.175434,1.36301 0.297944,2.73586 0.317158,4.11053 -0.07931,1.76338 -0.09039,3.51505 -0.02672,5.28167 0.166556,2.77654 0.365972,5.55248 0.599874,8.32431 0.09917,1.1591 0.139938,2.3205 0.184534,3.48227 -0.0043,0.31421 0.03908,1.04496 0.05575,1.13952 0.420587,-0.18835 0.985253,-0.1037 1.468234,-0.26218 4.272735,-0.31798 8.539866,-0.76706 12.815826,-1.0957 5.450169,-0.47577 10.926969,-0.51718 16.381129,-0.90653 4.21281,-0.28098 8.39727,-0.89588 12.55074,-1.6416 3.86337,-0.62889 7.72897,-1.22152 11.57031,-1.97827 2.29112,-0.60417 4.56681,-1.28445 6.91135,-1.65211 0.97867,-0.16373 1.97389,-0.19017 2.96409,-0.17554 0.6181,0.006 1.23573,0.008 1.85364,-0.0123 1.44884,-0.39086 3.1121,-0.34513 4.64383,-0.40876 2.88693,-0.0659 5.77332,-0.14875 8.65987,-0.22816 1.24212,-0.0394 2.48479,-0.0858 3.72769,-0.0863 4.45594,0.009 5.48993,-1.28708 -7.99237,5.18594 -0.26168,0.12563 0.20529,-0.54303 0.30793,-0.81455 -0.78497,-13.06903 -3.13081,-25.98047 -5.66653,-38.80509 -1.69772,-8.45514 -4.16301,-16.72508 -6.15002,-25.11025 -0.60908,-2.10055 -0.66405,-4.25471 -0.80524,-6.41626 -0.21362,-3.65378 -1.08213,-7.23951 -2.02141,-10.76585 -0.56633,-1.81858 -1.20891,-3.6257 -1.50027,-5.51348 -0.0384,-4.74748 -0.99588,-9.42195 -1.89315,-14.06708 -1.08847,-5.15739 -2.56906,-10.21376 -4.15181,-15.23709 -0.36645,-1.33271 -0.81745,-2.66454 -0.94781,-4.04809 0.0422,-1.22062 -0.14543,-2.40236 -0.33722,-3.60756 -0.49296,-2.88675 -1.34999,-5.69179 -1.91891,-8.56086 -0.30889,-1.50539 -0.5725,-3.021482 -0.73295,-4.549879 -0.0729,-0.897983 -0.0284,-1.793373 0.0263,-2.690434 0.23975,-3.295118 0.30019,-6.600119 0.27631,-9.902812 0.009,-2.514507 -0.20502,-5.024302 -0.2145,-7.537535 -0.0272,-1.125696 -0.0658,-2.250707 -0.10943,-3.375667 -0.0358,-0.809416 0.0224,-1.616144 0.005,-2.42492 -0.15961,-2.060887 -0.35583,-4.120139 -0.55907,-6.177441 -0.10969,-1.121646 -0.15302,-2.246387 -0.19906,-3.371596 0.0121,-0.719707 -0.0288,-1.439712 -0.0159,-2.15908 -0.0256,-0.459774 -0.009,-0.919122 -0.0241,-1.378886 0,0 10.02362,-5.106816 10.02362,-5.106816 v 0 c -0.0151,0.46925 5e-5,0.938086 -0.0273,1.407301 0.01,0.723156 -0.037,1.446733 -0.0226,2.170252 -0.0352,1.137767 -0.0368,2.277298 -0.0189,3.415358 0.0433,2.030587 0.17921,4.07193 0.60188,6.062456 0.19596,0.834859 0.23672,1.638914 0.18592,2.493809 -0.0434,1.162124 -0.0819,2.324304 -0.10926,3.487111 -0.01,2.586357 -0.22251,5.169461 -0.21564,7.75699 -0.0246,3.212862 0.0275,6.428134 0.26087,9.633736 0.0489,0.86713 0.0643,1.730457 0.0363,2.598775 -0.0258,1.541134 0.0766,3.081782 0.29571,4.607779 0.49013,2.870097 1.19336,5.695359 1.96818,8.500789 0.32269,1.18367 0.88681,2.33859 0.75213,3.5892 -7.9e-4,1.38193 0.1278,2.75502 0.3822,4.11554 0.90727,5.28512 2.14151,10.51084 3.24546,15.75651 1.03755,4.49411 2.42326,8.9322 3.21217,13.46656 0.17593,1.90307 0.58474,3.76648 1.02505,5.62431 0.80288,3.58802 1.53174,7.19368 2.28727,10.79169 0.30543,2.17847 0.37939,4.34111 0.44563,6.54023 0.73542,8.87135 2.14557,17.67096 3.57299,26.45219 2.16122,12.63289 4.4706,25.26381 8.68607,37.4062 0.11106,0.46027 0.71298,1.09808 0.33318,1.38079 -6.68056,4.97285 -6.62682,5.86111 -11.30945,5.723 -1.16158,-0.005 -2.32266,-0.054 -3.48398,-0.0771 -2.83323,-0.0356 -5.67014,-0.0385 -8.49703,0.18527 -1.58717,0.14035 -2.90146,0.41873 -4.43566,0.66708 -0.036,0.006 -0.56878,0.0107 -0.71873,0.0122 -0.58509,-0.0347 -1.17047,-0.0396 -1.75646,-0.035 -0.91396,0.0258 -1.82705,0.0671 -2.73108,0.21735 -2.19475,0.375 -4.3457,0.94039 -6.5253,1.39079 -3.81243,0.66654 -7.63606,1.25919 -11.45646,1.87691 -4.17281,0.70195 -8.37212,1.31079 -12.60148,1.53041 -5.315647,0.22426 -10.647752,0.10239 -15.950891,0.62539 -4.619649,0.43755 -9.216599,1.03208 -13.776029,1.90353 -0.830479,0.0327 -1.594466,0.0477 -2.227916,-0.56648 -0.440507,-0.6138 -0.443962,-1.16499 -0.366355,-1.90309 0.04233,-1.19001 0.05851,-2.38135 0.07594,-3.57195 0.02836,-2.79777 -0.07851,-5.60083 -0.376237,-8.38355 -0.22493,-1.70801 -0.495821,-3.4256 -0.42136,-5.15393 0.02312,-1.37476 0.08768,-2.75052 -0.01783,-4.12434 -0.191473,-2.91108 -0.748969,-5.7725 -1.61567,-8.56018 -0.907084,-3.04542 -1.571532,-6.16768 -2.733947,-9.13017 -0.458105,-0.91906 -1.045668,-1.8224 -0.956408,-2.8865 -0.03995,-1.21647 -0.144045,-2.42996 -0.361797,-3.62918 -0.553453,-3.2566 -0.975362,-6.53591 -1.690198,-9.76206 -0.627128,-2.47077 -1.173258,-4.95854 -1.707308,-7.45042 0.0065,-1.45431 0.133074,-2.90541 0.122645,-4.36063 0.05865,-3.00677 0.119335,-6.02009 -0.118954,-9.02128 -0.292836,-3.53851 -0.686682,-7.06318 -1.048692,-10.59445 -0.269365,-2.87729 -0.352277,-5.75063 -0.33355,-8.64136 -0.02447,-2.5228 0.04214,-5.0409 0.09894,-7.56277 0.06375,-4.37758 0.02275,-8.75738 -0.286729,-13.12653 -0.252375,-3.31169 -0.579855,-6.61892 -0.629224,-9.94224 -0.003,-1.8923 0.02548,-3.78276 0.0565,-5.6747 -0.02387,-1.71189 -0.04457,-3.42335 -0.160853,-5.13219 -0.04487,-0.71175 -0.09302,-1.42669 -0.325808,-2.10742 -0.285642,-0.91903 -0.497821,-1.80897 -0.453255,-2.77941 0,0 9.992249,-5.091305 9.992249,-5.091305 z"
       inkscape:connector-curvature="0" />
    <path
       style="fill:#000000;stroke-width:0.26458332"
       id="path4552"
       d="m 57.747923,100.4589 c 0.322419,-2.147542 -0.193831,-4.251684 -0.701384,-6.325297 -0.757695,-3.319823 -1.605878,-6.617417 -2.317178,-9.947802 -0.750147,-3.230562 -1.404028,-6.487218 -1.864355,-9.77239 -0.24044,-1.710923 -0.322643,-3.42836 -0.32045,-5.153057 0.108016,-2.179537 0.0897,-4.359857 0.05897,-6.540897 -0.004,-1.181486 -0.0725,-2.36139 -0.09076,-3.542487 0,0 9.878997,-5.032987 9.878997,-5.032987 v 0 c -0.01966,1.213856 -0.08969,2.426433 -0.0985,3.640614 -0.0381,2.163696 -0.07283,4.327163 0.03106,6.489771 0.0105,1.717538 -0.01505,3.43616 0.0814,5.151753 0.230613,3.308739 0.692467,6.594835 1.548267,9.80536 0.745461,3.29865 1.702163,6.539156 2.461707,9.833311 0.538917,2.080498 1.258345,4.13589 1.324483,6.302804 0,0 -9.992246,5.091304 -9.992246,5.091304 z"
       inkscape:connector-curvature="0" />
    <rect
       style="fill:#ff0000;stroke-width:0.26458332"
       id="rect4556"
       width="31.75"
       height="26.458332"
       x="21.166666"
       y="205.52977" />
    <rect
       style="fill:#ff0000;stroke-width:0.26458332"
       id="rect4556-6"
       width="31.75"
       height="26.458334"
       x="386.85861"
       y="62.654766" />
    <rect
       style="fill:#ff0000;stroke-width:0.26458332"
       id="rect4556-1"
       width="31.75"
       height="26.458334"
       x="85.001053"
       y="80.952911" />
    <rect
       style="fill:#ff0000;stroke-width:0.26458332"
       id="rect4556-2"
       width="31.75"
       height="26.458334"
       x="385.25363"
       y="211.4561" />
    <rect
       style="fill:#ff0000;stroke-width:0.26458332"
       id="rect4556-9"
       width="31.75"
       height="26.458334"
       x="14.363096"
       y="161.30655" />
    <rect
       style="fill:#ff0000;stroke-width:0.26458332"
       id="rect4556-3"
       width="31.75"
       height="26.458334"
       x="86.934525"
       y="123.50893" />
    <flowRoot
       xml:space="preserve"
       id="flowRoot4597"
       style="font-style:normal;font-weight:normal;font-size:40px;line-height:1.25;font-family:sans-serif;letter-spacing:0px;word-spacing:0px;fill:#000000;fill-opacity:1;stroke:none"
       transform="scale(0.26458333)"><flowRegion
         id="flowRegion4599"><rect
           id="rect4601"
           width="308.57144"
           height="1820"
           x="-317.14285"
           y="33.948257" /></flowRegion><flowPara
         id="flowPara4603">Stack : </flowPara><flowPara
         id="flowPara4605" /><flowPara
         id="flowPara4607">just one door </flowPara><flowPara
         id="flowPara4609">to add or delete any data inisde this stack.</flowPara><flowPara
         id="flowPara4611" /><flowPara
         id="flowPara4613">LIFO</flowPara><flowPara
         id="flowPara4615" /><flowPara
         id="flowPara4617">Last In</flowPara><flowPara
         id="flowPara4619">First Out</flowPara><flowPara
         id="flowPara4635" /><flowPara
         id="flowPara4653">Functions:</flowPara><flowPara
         id="flowPara4655">- Push </flowPara><flowPara
         id="flowPara4661">(in elements)</flowPara><flowPara
         id="flowPara4657" /><flowPara
         id="flowPara4659">- pop </flowPara><flowPara
         id="flowPara4663">(out elements)</flowPara><flowPara
         id="flowPara4665" /><flowPara
         id="flowPara4667">- display </flowPara><flowPara
         id="flowPara4669">(</flowPara></flowRoot>    <text
       xml:space="preserve"
       style="font-style:normal;font-weight:normal;font-size:10.58333302px;line-height:1.25;font-family:sans-serif;letter-spacing:0px;word-spacing:0px;fill:#000000;fill-opacity:1;stroke:none;stroke-width:0.26458332"
       x="-30.994047"
       y="159.41667"
       id="text4623"><tspan
         sodipodi:role="line"
         x="-30.994047"
         y="168.78044"
         style="stroke-width:0.26458332"
         id="tspan4627" /><tspan
         sodipodi:role="line"
         x="-30.994047"
         y="182.00961"
         style="stroke-width:0.26458332"
         id="tspan4633" /></text>
    <flowRoot
       xml:space="preserve"
       id="flowRoot4637"
       style="fill:black;fill-opacity:1;stroke:none;font-family:sans-serif;font-style:normal;font-weight:normal;font-size:40px;line-height:1.25;letter-spacing:0px;word-spacing:0px"><flowRegion
         id="flowRegion4639"><rect
           id="rect4641"
           width="5.7142859"
           height="120"
           x="-31.428572"
           y="725.37683" /></flowRegion><flowPara
         id="flowPara4643"></flowPara></flowRoot>    <flowRoot
       xml:space="preserve"
       id="flowRoot4645"
       style="fill:black;fill-opacity:1;stroke:none;font-family:sans-serif;font-style:normal;font-weight:normal;font-size:40px;line-height:1.25;letter-spacing:0px;word-spacing:0px"><flowRegion
         id="flowRegion4647"><rect
           id="rect4649"
           width="8.5714283"
           height="105.71429"
           x="-88.571426"
           y="-37.480316" /></flowRegion><flowPara
         id="flowPara4651"></flowPara></flowRoot>    <text
       xml:space="preserve"
       style="font-style:normal;font-weight:normal;font-size:10.58333302px;line-height:1.25;font-family:sans-serif;letter-spacing:0px;word-spacing:0px;fill:#000000;fill-opacity:1;stroke:none;stroke-width:0.26458332"
       x="-71.815475"
       y="297"
       id="text4673"><tspan
         sodipodi:role="line"
         id="tspan4671"
         x="-71.815475"
         y="306.36377"
         style="stroke-width:0.26458332" /></text>
    <text
       xml:space="preserve"
       style="font-style:normal;font-weight:normal;font-size:10.58333302px;line-height:1.25;font-family:sans-serif;letter-spacing:0px;word-spacing:0px;fill:#000000;fill-opacity:1;stroke:none;stroke-width:0.26458332"
       x="-78.619049"
       y="294.73215"
       id="text4677"><tspan
         sodipodi:role="line"
         id="tspan4675"
         x="-78.619049"
         y="294.73215"
         style="stroke-width:0.26458332">display your elements from last one to first)</tspan><tspan
         sodipodi:role="line"
         x="-78.619049"
         y="307.9613"
         style="stroke-width:0.26458332"
         id="tspan4679" /><tspan
         sodipodi:role="line"
         x="-78.619049"
         y="321.19049"
         style="stroke-width:0.26458332"
         id="tspan4683">- Peak </tspan><tspan
         sodipodi:role="line"
         x="-78.619049"
         y="334.41965"
         style="stroke-width:0.26458332"
         id="tspan4687">(just read last elements)</tspan></text>
    <flowRoot
       xml:space="preserve"
       id="flowRoot4689"
       style="font-style:normal;font-weight:normal;font-size:40px;line-height:1.25;font-family:sans-serif;letter-spacing:0px;word-spacing:0px;fill:#000000;fill-opacity:1;stroke:none"
       transform="scale(0.26458333)"><flowRegion
         id="flowRegion4691"><rect
           id="rect4693"
           width="2550"
           height="2544.4443"
           x="883.33331"
           y="-766.3692" /></flowRegion><flowPara
         id="flowPara4695">Stack based on Array :</flowPara><flowPara
         id="flowPara4707"></flowPara><flowPara
         id="flowPara4709"> </flowPara><flowPara
         id="flowPara4697" /></flowRoot>    <text
       xml:space="preserve"
       style="font-style:normal;font-weight:normal;font-size:10.58333302px;line-height:1.25;font-family:sans-serif;letter-spacing:0px;word-spacing:0px;fill:#000000;fill-opacity:1;stroke:none;stroke-width:0.26458332"
       x="364.74701"
       y="-193.4241"
       id="text4701"><tspan
         sodipodi:role="line"
         id="tspan4699"
         x="364.74701"
         y="-184.06033"
         style="stroke-width:0.26458332"></tspan><tspan
         sodipodi:role="line"
         x="364.74701"
         y="-170.83116"
         style="stroke-width:0.26458332"
         id="tspan4703" /><tspan
         sodipodi:role="line"
         x="364.74701"
         y="-157.60201"
         style="stroke-width:0.26458332"
         id="tspan4705" /></text>
    <path
       style="fill:none;stroke:#000000;stroke-width:0.26458332px;stroke-linecap:butt;stroke-linejoin:miter;stroke-opacity:1"
       d="M 340.17857,21.077381 343.0134,246.91815"
       id="path4731"
       inkscape:connector-curvature="0" />
    <path
       style="fill:none;stroke:#000000;stroke-width:0.26458332px;stroke-linecap:butt;stroke-linejoin:miter;stroke-opacity:1"
       d="M 343.0134,246.91815 H 458.29614 L 454.51637,22.967262"
       id="path4745"
       inkscape:connector-curvature="0" />
    <path
       style="fill:none;stroke:#000000;stroke-width:0.26458332px;stroke-linecap:butt;stroke-linejoin:miter;stroke-opacity:1"
       d="m 341.1235,195.89137 115.28274,0.94494"
       id="path4747"
       inkscape:connector-curvature="0" />
    <path
       style="fill:none;stroke:#000000;stroke-width:0.26458332px;stroke-linecap:butt;stroke-linejoin:miter;stroke-opacity:1"
       d="m 340.17857,143.91964 115.28274,2.83482"
       id="path4749"
       inkscape:connector-curvature="0" />
    <path
       style="fill:none;stroke:#000000;stroke-width:0.26458332px;stroke-linecap:butt;stroke-linejoin:miter;stroke-opacity:1"
       d="m 340.17857,99.507438 115.28274,1.889882"
       id="path4751"
       inkscape:connector-curvature="0" />
    <path
       style="fill:none;stroke:#000000;stroke-width:0.26458332px;stroke-linecap:butt;stroke-linejoin:miter;stroke-opacity:1"
       d="M 340.17857,65.489584 H 453.57142"
       id="path4755"
       inkscape:connector-curvature="0" />
    <flowRoot
       xml:space="preserve"
       id="flowRoot4757"
       style="font-style:normal;font-weight:normal;font-size:37.3333338px;line-height:1.25;font-family:sans-serif;letter-spacing:0px;word-spacing:0px;fill:#000000;fill-opacity:1;stroke:none;"
       transform="scale(0.26458333)"><flowRegion
         id="flowRegion4759"
         style="font-size:37.3333338px;"><rect
           id="rect4761"
           width="460.71429"
           height="1000"
           x="1717.8572"
           y="86.805397"
           style="font-size:37.3333338px;" /></flowRegion><flowPara
         id="flowPara4763"></flowPara><flowPara
         id="flowPara4765" /></flowRoot>    <flowRoot
       xml:space="preserve"
       id="flowRoot4767"
       style="font-style:normal;font-weight:normal;font-size:40px;line-height:1.25;font-family:sans-serif;letter-spacing:0px;word-spacing:0px;fill:#000000;fill-opacity:1;stroke:none"
       transform="scale(0.26458333)"><flowRegion
         id="flowRegion4769"><rect
           id="rect4771"
           width="310.71429"
           height="1021.4286"
           x="1732.1428"
           y="76.09111" /></flowRegion><flowPara
         id="flowPara4773" /><flowPara
         id="flowPara4775">4 </flowPara><flowPara
         id="flowPara4777" /><flowPara
         id="flowPara4779" /><flowPara
         id="flowPara4787">3</flowPara><flowPara
         id="flowPara4791" /><flowPara
         id="flowPara4793" /><flowPara
         id="flowPara4797">2</flowPara><flowPara
         id="flowPara4801" /><flowPara
         id="flowPara4803" /><flowPara
         id="flowPara4805" /><flowPara
         id="flowPara4807">1</flowPara><flowPara
         id="flowPara4809" /><flowPara
         id="flowPara4811" /><flowPara
         id="flowPara4813" /><flowPara
         id="flowPara4815">0</flowPara><flowPara
         id="flowPara4817" /><flowPara
         id="flowPara4819" /><flowPara
         id="flowPara4821" /><flowPara
         id="flowPara4823">-1</flowPara></flowRoot>    <flowRoot
       xml:space="preserve"
       id="flowRoot4825"
       style="fill:black;fill-opacity:1;stroke:none;font-family:sans-serif;font-style:normal;font-weight:normal;font-size:40px;line-height:1.25;letter-spacing:0px;word-spacing:0px"><flowRegion
         id="flowRegion4827"><rect
           id="rect4829"
           width="120"
           height="99.999977"
           x="1456.0767"
           y="799.20416" /></flowRegion><flowPara
         id="flowPara4831"></flowPara></flowRoot>    <text
       xml:space="preserve"
       style="font-style:normal;font-weight:normal;font-size:10.58333302px;line-height:1.25;font-family:sans-serif;letter-spacing:0px;word-spacing:0px;fill:#000000;fill-opacity:1;stroke:none;stroke-width:0.26458332"
       x="417.0036"
       y="237.91443"
       id="text4835"><tspan
         sodipodi:role="line"
         id="tspan4833"
         x="417.0036"
         y="247.2782"
         style="stroke-width:0.26458332" /></text>
    <text
       xml:space="preserve"
       style="font-style:normal;font-weight:normal;font-size:10.58333302px;line-height:1.25;font-family:sans-serif;letter-spacing:0px;word-spacing:0px;fill:#000000;fill-opacity:1;stroke:none;stroke-width:0.26458332"
       x="399.70984"
       y="225.18452"
       id="text4839"><tspan
         sodipodi:role="line"
         id="tspan4837"
         x="399.70984"
         y="225.18452"
         style="stroke-width:0.26458332">1</tspan></text>
    <rect
       style="fill:#ff0000;stroke-width:0.26458332"
       id="rect4556-2-1"
       width="31.75"
       height="26.458334"
       x="381.94495"
       y="157.1488" />
    <text
       xml:space="preserve"
       style="font-style:normal;font-weight:normal;font-size:10.58333302px;line-height:1.25;font-family:sans-serif;letter-spacing:0px;word-spacing:0px;fill:#000000;fill-opacity:1;stroke:none;stroke-width:0.26458332"
       x="396.40115"
       y="170.87723"
       id="text4839-9"><tspan
         sodipodi:role="line"
         id="tspan4837-4"
         x="396.40115"
         y="170.87723"
         style="stroke-width:0.26458332">2</tspan></text>
    <rect
       style="fill:#ff0000;stroke-width:0.26458332"
       id="rect4556-2-7"
       width="31.75"
       height="26.458334"
       x="376.2753"
       y="105.17708" />
    <text
       xml:space="preserve"
       style="font-style:normal;font-weight:normal;font-size:10.58333302px;line-height:1.25;font-family:sans-serif;letter-spacing:0px;word-spacing:0px;fill:#000000;fill-opacity:1;stroke:none;stroke-width:0.26458332"
       x="408.02533"
       y="131.63541"
       id="text4884"><tspan
         sodipodi:role="line"
         id="tspan4882"
         x="408.02533"
         y="140.99918"
         style="stroke-width:0.26458332" /></text>
    <flowRoot
       xml:space="preserve"
       id="flowRoot4886"
       style="font-style:normal;font-weight:normal;font-size:40px;line-height:1.25;font-family:sans-serif;letter-spacing:0px;word-spacing:0px;fill:#000000;fill-opacity:1;stroke:none"
       transform="scale(0.26458333)"><flowRegion
         id="flowRegion4888"><rect
           id="rect4890"
           width="120"
           height="99.999977"
           x="1422.1428"
           y="397.51965" /></flowRegion><flowPara
         id="flowPara4894"> </flowPara><flowPara
         id="flowPara4898">    3</flowPara></flowRoot>    <text
       xml:space="preserve"
       style="font-style:normal;font-weight:normal;font-size:10.58333302px;line-height:1.25;font-family:sans-serif;letter-spacing:0px;word-spacing:0px;fill:#000000;fill-opacity:1;stroke:none;stroke-width:0.26458332"
       x="403.48959"
       y="74.938988"
       id="text4902"><tspan
         sodipodi:role="line"
         id="tspan4900"
         x="403.48959"
         y="74.938988"
         style="stroke-width:0.26458332">4</tspan></text>
    <text
       xml:space="preserve"
       style="font-style:normal;font-weight:normal;font-size:10.58333302px;line-height:1.25;font-family:sans-serif;letter-spacing:0px;word-spacing:0px;fill:#000000;fill-opacity:1;stroke:none;stroke-width:0.26458332"
       x="474.36008"
       y="44.700893"
       id="text4906"><tspan
         sodipodi:role="line"
         id="tspan4904"
         x="474.36008"
         y="44.700893"
         style="stroke-width:0.26458332">&lt;=   TOP</tspan></text>
  </g>
</svg>
